<svg xmlns="http://www.w3.org/2000/svg" width="300" height="200" viewBox="0 0 300 200">
  <rect width="300" height="200" fill="white"/>
  <rect x="90" y="10" width="120" height="8" rx="2" fill="#252b5d"/>
  <rect x="15" y="30" width="125" height="72" rx="8" fill="#E5E7EB"/>
  <circle cx="77" cy="55" r="14" fill="#9CA3AF" opacity="0.5"/>
  <rect x="50" y="78" width="55" height="5" rx="2" fill="#252b5d"/>
  <rect x="45" y="88" width="65" height="4" rx="2" fill="#9CA3AF"/>
  <rect x="160" y="30" width="125" height="72" rx="8" fill="#E5E7EB"/>
  <circle cx="222" cy="55" r="14" fill="#9CA3AF" opacity="0.5"/>
  <rect x="195" y="78" width="55" height="5" rx="2" fill="#252b5d"/>
  <rect x="190" y="88" width="65" height="4" rx="2" fill="#9CA3AF"/>
  <rect x="15" y="115" width="125" height="72" rx="8" fill="#E5E7EB"/>
  <circle cx="77" cy="140" r="14" fill="#9CA3AF" opacity="0.5"/>
  <rect x="50" y="163" width="55" height="5" rx="2" fill="#252b5d"/>
  <rect x="45" y="173" width="65" height="4" rx="2" fill="#9CA3AF"/>
  <rect x="160" y="115" width="125" height="72" rx="8" fill="#E5E7EB"/>
  <circle cx="222" cy="140" r="14" fill="#9CA3AF" opacity="0.5"/>
  <rect x="195" y="163" width="55" height="5" rx="2" fill="#252b5d"/>
  <rect x="190" y="173" width="65" height="4" rx="2" fill="#9CA3AF"/>
</svg>
