<svg xmlns="http://www.w3.org/2000/svg" width="300" height="200" viewBox="0 0 300 200">
  <rect width="300" height="200" fill="white"/>
  <rect x="15" y="25" width="80" height="8" rx="2" fill="#252b5d"/>
  <rect x="15" y="42" width="115" height="5" rx="2" fill="#9CA3AF"/>
  <rect x="15" y="53" width="110" height="5" rx="2" fill="#9CA3AF"/>
  <rect x="15" y="64" width="100" height="5" rx="2" fill="#9CA3AF"/>
  <rect x="15" y="75" width="108" height="5" rx="2" fill="#9CA3AF"/>
  <rect x="15" y="95" width="60" height="16" rx="4" fill="#407ec9"/>
  <rect x="155" y="20" width="130" height="165" rx="6" fill="#E5E7EB"/>
  <circle cx="172" cy="42" r="8" fill="#407ec9" opacity="0.7"/>
  <rect x="186" y="39" width="85" height="5" rx="2" fill="#9CA3AF"/>
  <circle cx="172" cy="68" r="8" fill="#407ec9" opacity="0.7"/>
  <rect x="186" y="65" width="85" height="5" rx="2" fill="#9CA3AF"/>
  <circle cx="172" cy="94" r="8" fill="#407ec9" opacity="0.7"/>
  <rect x="186" y="91" width="85" height="5" rx="2" fill="#9CA3AF"/>
  <circle cx="172" cy="120" r="8" fill="#407ec9" opacity="0.7"/>
  <rect x="186" y="117" width="85" height="5" rx="2" fill="#9CA3AF"/>
  <circle cx="172" cy="146" r="8" fill="#407ec9" opacity="0.7"/>
  <rect x="186" y="143" width="85" height="5" rx="2" fill="#9CA3AF"/>
</svg>
