<svg xmlns="http://www.w3.org/2000/svg" width="300" height="200" viewBox="0 0 300 200">
  <rect width="300" height="200" fill="#fff"/>
  <rect x="20" y="15" width="260" height="80" rx="8" fill="#E5E7EB"/>
  <rect x="32" y="28" width="100" height="6" rx="3" fill="#252b5d"/>
  <rect x="32" y="38" width="236" height="1" fill="#f9ad32"/>
  <rect x="42" y="48" width="180" height="4" rx="2" fill="#9CA3AF"/>
  <rect x="42" y="58" width="160" height="4" rx="2" fill="#9CA3AF"/>
  <rect x="42" y="68" width="190" height="4" rx="2" fill="#9CA3AF"/>
  <rect x="42" y="78" width="140" height="4" rx="2" fill="#9CA3AF"/>
  <rect x="32" y="48" width="4" height="4" rx="1" fill="#407ec9"/>
  <rect x="32" y="58" width="4" height="4" rx="1" fill="#407ec9"/>
  <rect x="32" y="68" width="4" height="4" rx="1" fill="#407ec9"/>
  <rect x="32" y="78" width="4" height="4" rx="1" fill="#407ec9"/>
  <rect x="20" y="105" width="260" height="80" rx="8" fill="#E5E7EB"/>
  <rect x="32" y="118" width="100" height="6" rx="3" fill="#252b5d"/>
  <rect x="32" y="128" width="236" height="1" fill="#f9ad32"/>
  <rect x="42" y="138" width="180" height="4" rx="2" fill="#9CA3AF"/>
  <rect x="42" y="148" width="160" height="4" rx="2" fill="#9CA3AF"/>
  <rect x="42" y="158" width="190" height="4" rx="2" fill="#9CA3AF"/>
  <rect x="32" y="138" width="4" height="4" rx="1" fill="#407ec9"/>
  <rect x="32" y="148" width="4" height="4" rx="1" fill="#407ec9"/>
  <rect x="32" y="158" width="4" height="4" rx="1" fill="#407ec9"/>
</svg>