<svg xmlns="http://www.w3.org/2000/svg" width="300" height="200" viewBox="0 0 300 200">
  <rect width="300" height="200" fill="white"/>
  <rect x="90" y="10" width="120" height="8" rx="2" fill="#252b5d"/>
  <!-- Stacked card 1 -->
  <rect x="20" y="28" width="260" height="48" rx="8" fill="#E5E7EB"/>
  <circle cx="38" cy="42" r="4" fill="#407ec9"/>
  <rect x="48" y="39" width="120" height="5" rx="2" fill="#9CA3AF"/>
  <circle cx="38" cy="58" r="4" fill="#407ec9"/>
  <rect x="48" y="55" width="100" height="5" rx="2" fill="#9CA3AF"/>
  <!-- Stacked card 2 -->
  <rect x="20" y="84" width="260" height="48" rx="8" fill="#E5E7EB"/>
  <circle cx="38" cy="98" r="4" fill="#407ec9"/>
  <rect x="48" y="95" width="110" height="5" rx="2" fill="#9CA3AF"/>
  <circle cx="38" cy="114" r="4" fill="#407ec9"/>
  <rect x="48" y="111" width="130" height="5" rx="2" fill="#9CA3AF"/>
  <!-- Stacked card 3 -->
  <rect x="20" y="140" width="260" height="48" rx="8" fill="#E5E7EB"/>
  <circle cx="38" cy="154" r="4" fill="#407ec9"/>
  <rect x="48" y="151" width="115" height="5" rx="2" fill="#9CA3AF"/>
  <circle cx="38" cy="170" r="4" fill="#407ec9"/>
  <rect x="48" y="167" width="95" height="5" rx="2" fill="#9CA3AF"/>
</svg>
