<svg xmlns="http://www.w3.org/2000/svg" width="300" height="200" viewBox="0 0 300 200">
  <rect width="300" height="200" fill="white"/>
  <!-- Left column: big stat -->
  <rect x="15" y="35" width="60" height="14" rx="2" fill="#252b5d"/>
  <rect x="15" y="58" width="100" height="5" rx="2" fill="#9CA3AF"/>
  <rect x="15" y="69" width="90" height="5" rx="2" fill="#9CA3AF"/>
  <!-- Another big stat -->
  <rect x="15" y="100" width="50" height="14" rx="2" fill="#252b5d"/>
  <rect x="15" y="123" width="95" height="5" rx="2" fill="#9CA3AF"/>
  <rect x="15" y="134" width="85" height="5" rx="2" fill="#9CA3AF"/>
  <!-- Right column: stat bars -->
  <rect x="155" y="30" width="130" height="22" rx="4" fill="#E5E7EB"/>
  <rect x="160" y="35" width="80" height="12" rx="3" fill="#407ec9" opacity="0.7"/>

  <rect x="155" y="60" width="130" height="22" rx="4" fill="#E5E7EB"/>
  <rect x="160" y="65" width="100" height="12" rx="3" fill="#407ec9" opacity="0.7"/>

  <rect x="155" y="90" width="130" height="22" rx="4" fill="#E5E7EB"/>
  <rect x="160" y="95" width="60" height="12" rx="3" fill="#407ec9" opacity="0.7"/>

  <rect x="155" y="120" width="130" height="22" rx="4" fill="#E5E7EB"/>
  <rect x="160" y="125" width="110" height="12" rx="3" fill="#407ec9" opacity="0.7"/>

  <rect x="155" y="150" width="130" height="22" rx="4" fill="#E5E7EB"/>
  <rect x="160" y="155" width="70" height="12" rx="3" fill="#407ec9" opacity="0.7"/>
</svg>