<svg xmlns="http://www.w3.org/2000/svg" width="300" height="200" viewBox="0 0 300 200">
  <rect width="300" height="200" fill="#fff"/>
  <rect x="15" y="40" width="70" height="90" rx="12" fill="#407ec9" opacity="0.2"/>
  <rect x="28" y="55" width="44" height="5" rx="2.5" fill="#252b5d"/>
  <rect x="28" y="64" width="40" height="5" rx="2.5" fill="#252b5d"/>
  <rect x="28" y="80" width="35" height="4" rx="2" fill="#9CA3AF"/>
  <rect x="28" y="88" width="30" height="3" rx="1.5" fill="#9CA3AF"/>
  <rect x="95" y="40" width="70" height="90" rx="12" fill="#407ec9" opacity="0.2"/>
  <rect x="108" y="55" width="44" height="5" rx="2.5" fill="#252b5d"/>
  <rect x="108" y="64" width="40" height="5" rx="2.5" fill="#252b5d"/>
  <rect x="108" y="80" width="35" height="4" rx="2" fill="#9CA3AF"/>
  <rect x="108" y="88" width="30" height="3" rx="1.5" fill="#9CA3AF"/>
  <rect x="175" y="40" width="70" height="90" rx="12" fill="#407ec9" opacity="0.2"/>
  <rect x="188" y="55" width="44" height="5" rx="2.5" fill="#252b5d"/>
  <rect x="188" y="64" width="40" height="5" rx="2.5" fill="#252b5d"/>
  <rect x="188" y="80" width="35" height="4" rx="2" fill="#9CA3AF"/>
  <rect x="188" y="88" width="30" height="3" rx="1.5" fill="#9CA3AF"/>
  <rect x="255" y="40" width="40" height="90" rx="12" fill="#407ec9" opacity="0.1"/>
  <polygon points="285,85 295,80 295,90" fill="#9CA3AF"/>
</svg>