<svg xmlns="http://www.w3.org/2000/svg" width="300" height="200" viewBox="0 0 300 200">
  <rect width="300" height="200" fill="white"/>
  <rect x="80" y="20" width="140" height="8" rx="2" fill="#252b5d"/>
  <!-- Left arrow -->
  <polygon points="18,100 30,88 30,112" fill="#407ec9"/>
  <!-- Logo cards -->
  <rect x="40" y="55" width="55" height="55" rx="8" fill="#E5E7EB"/>
  <rect x="52" y="67" width="30" height="30" rx="4" fill="#9CA3AF" opacity="0.4"/>
  <rect x="105" y="55" width="55" height="55" rx="8" fill="#E5E7EB"/>
  <rect x="117" y="67" width="30" height="30" rx="4" fill="#9CA3AF" opacity="0.4"/>
  <rect x="170" y="55" width="55" height="55" rx="8" fill="#E5E7EB"/>
  <rect x="182" y="67" width="30" height="30" rx="4" fill="#9CA3AF" opacity="0.4"/>
  <rect x="235" y="55" width="55" height="55" rx="8" fill="#E5E7EB"/>
  <rect x="247" y="67" width="30" height="30" rx="4" fill="#9CA3AF" opacity="0.4"/>
  <!-- Right arrow -->
  <polygon points="282,100 270,88 270,112" fill="#407ec9"/>
  <!-- Text lines under cards -->
  <rect x="47" y="118" width="40" height="4" rx="2" fill="#9CA3AF"/>
  <rect x="112" y="118" width="40" height="4" rx="2" fill="#9CA3AF"/>
  <rect x="177" y="118" width="40" height="4" rx="2" fill="#9CA3AF"/>
  <rect x="242" y="118" width="40" height="4" rx="2" fill="#9CA3AF"/>
  <!-- Navigation dots -->
  <circle cx="135" cy="155" r="4" fill="#407ec9"/>
  <circle cx="150" cy="155" r="4" fill="#E5E7EB"/>
  <circle cx="165" cy="155" r="4" fill="#E5E7EB"/>
</svg>
