<svg xmlns="http://www.w3.org/2000/svg" width="300" height="200" viewBox="0 0 300 200">
  <rect width="300" height="200" fill="white"/>
  <!-- Left column: text lines -->
  <rect x="15" y="25" width="80" height="8" rx="2" fill="#252b5d"/>
  <rect x="15" y="42" width="115" height="5" rx="2" fill="#9CA3AF"/>
  <rect x="15" y="53" width="110" height="5" rx="2" fill="#9CA3AF"/>
  <rect x="15" y="64" width="100" height="5" rx="2" fill="#9CA3AF"/>
  <rect x="15" y="75" width="108" height="5" rx="2" fill="#9CA3AF"/>
  <rect x="15" y="86" width="95" height="5" rx="2" fill="#9CA3AF"/>
  <rect x="15" y="105" width="60" height="16" rx="4" fill="#407ec9"/>
  <!-- Right column: two rounded cards -->
  <!-- Card 1 -->
  <rect x="155" y="20" width="130" height="75" rx="8" fill="#E5E7EB"/>
  <circle cx="170" cy="40" r="4" fill="#407ec9"/>
  <rect x="180" y="37" width="90" height="5" rx="2" fill="#9CA3AF"/>
  <circle cx="170" cy="55" r="4" fill="#407ec9"/>
  <rect x="180" y="52" width="80" height="5" rx="2" fill="#9CA3AF"/>
  <circle cx="170" cy="70" r="4" fill="#407ec9"/>
  <rect x="180" y="67" width="85" height="5" rx="2" fill="#9CA3AF"/>
  <!-- Card 2 -->
  <rect x="155" y="105" width="130" height="75" rx="8" fill="#E5E7EB"/>
  <circle cx="170" cy="125" r="4" fill="#407ec9"/>
  <rect x="180" y="122" width="90" height="5" rx="2" fill="#9CA3AF"/>
  <circle cx="170" cy="140" r="4" fill="#407ec9"/>
  <rect x="180" y="137" width="80" height="5" rx="2" fill="#9CA3AF"/>
  <circle cx="170" cy="155" r="4" fill="#407ec9"/>
  <rect x="180" y="152" width="85" height="5" rx="2" fill="#9CA3AF"/>
</svg>