<svg xmlns="http://www.w3.org/2000/svg" width="300" height="200" viewBox="0 0 300 200">
  <rect width="300" height="200" fill="white"/>
  <!-- Header -->
  <rect x="100" y="15" width="100" height="8" rx="2" fill="#252b5d"/>
  <!-- Person 1 -->
  <circle cx="45" cy="70" r="22" fill="#E5E7EB"/>
  <rect x="25" y="100" width="40" height="5" rx="2" fill="#252b5d"/>
  <rect x="20" y="111" width="50" height="4" rx="2" fill="#9CA3AF"/>
  <rect x="25" y="120" width="40" height="4" rx="2" fill="#9CA3AF"/>
  <!-- Person 2 -->
  <circle cx="115" cy="70" r="22" fill="#E5E7EB"/>
  <rect x="95" y="100" width="40" height="5" rx="2" fill="#252b5d"/>
  <rect x="90" y="111" width="50" height="4" rx="2" fill="#9CA3AF"/>
  <rect x="95" y="120" width="40" height="4" rx="2" fill="#9CA3AF"/>
  <!-- Person 3 -->
  <circle cx="185" cy="70" r="22" fill="#E5E7EB"/>
  <rect x="165" y="100" width="40" height="5" rx="2" fill="#252b5d"/>
  <rect x="160" y="111" width="50" height="4" rx="2" fill="#9CA3AF"/>
  <rect x="165" y="120" width="40" height="4" rx="2" fill="#9CA3AF"/>
  <!-- Person 4 -->
  <circle cx="255" cy="70" r="22" fill="#E5E7EB"/>
  <rect x="235" y="100" width="40" height="5" rx="2" fill="#252b5d"/>
  <rect x="230" y="111" width="50" height="4" rx="2" fill="#9CA3AF"/>
  <rect x="235" y="120" width="40" height="4" rx="2" fill="#9CA3AF"/>
  <!-- Navigation dots -->
  <circle cx="135" cy="160" r="4" fill="#407ec9"/>
  <circle cx="150" cy="160" r="4" fill="#E5E7EB"/>
  <circle cx="165" cy="160" r="4" fill="#E5E7EB"/>
</svg>