<svg xmlns="http://www.w3.org/2000/svg" width="300" height="200" viewBox="0 0 300 200">
  <rect width="300" height="200" fill="#fff"/>
  <rect x="20" y="15" width="100" height="7" rx="3.5" fill="#252b5d"/>
  <rect x="20" y="38" width="260" height="44" rx="6" fill="#E5E7EB"/>
  <rect x="20" y="38" width="4" height="44" rx="2" fill="#9CA3AF"/>
  <rect x="34" y="48" width="80" height="5" rx="2.5" fill="#252b5d"/>
  <rect x="34" y="60" width="150" height="4" rx="2" fill="#9CA3AF"/>
  <rect x="34" y="70" width="60" height="4" rx="2" fill="#9CA3AF"/>
  <rect x="20" y="92" width="260" height="44" rx="6" fill="#E5E7EB"/>
  <rect x="20" y="92" width="4" height="44" rx="2" fill="#9CA3AF"/>
  <rect x="34" y="102" width="80" height="5" rx="2.5" fill="#252b5d"/>
  <rect x="34" y="114" width="150" height="4" rx="2" fill="#9CA3AF"/>
  <rect x="34" y="124" width="60" height="4" rx="2" fill="#9CA3AF"/>
  <rect x="20" y="146" width="260" height="44" rx="6" fill="#407ec9" opacity="0.15"/>
  <rect x="20" y="146" width="4" height="44" rx="2" fill="#252b5d"/>
  <rect x="34" y="156" width="80" height="5" rx="2.5" fill="#252b5d"/>
  <rect x="34" y="168" width="150" height="4" rx="2" fill="#9CA3AF"/>
  <rect x="34" y="178" width="60" height="4" rx="2" fill="#9CA3AF"/>
</svg>