<svg xmlns="http://www.w3.org/2000/svg" width="300" height="200" viewBox="0 0 300 200">
  <rect width="300" height="200" fill="white"/>
  <rect x="80" y="10" width="140" height="8" rx="2" fill="#252b5d"/>
  <!-- Event card 1 -->
  <rect x="20" y="28" width="260" height="38" rx="6" fill="#E5E7EB"/>
  <rect x="20" y="28" width="4" height="38" rx="2" fill="#407ec9"/>
  <rect x="34" y="36" width="80" height="5" rx="2" fill="#252b5d"/>
  <rect x="34" y="48" width="180" height="4" rx="2" fill="#9CA3AF"/>
  <rect x="34" y="57" width="60" height="4" rx="2" fill="#407ec9"/>
  <!-- Event card 2 -->
  <rect x="20" y="74" width="260" height="38" rx="6" fill="#E5E7EB"/>
  <rect x="20" y="74" width="4" height="38" rx="2" fill="#407ec9"/>
  <rect x="34" y="82" width="90" height="5" rx="2" fill="#252b5d"/>
  <rect x="34" y="94" width="170" height="4" rx="2" fill="#9CA3AF"/>
  <rect x="34" y="103" width="55" height="4" rx="2" fill="#407ec9"/>
  <!-- Event card 3 -->
  <rect x="20" y="120" width="260" height="38" rx="6" fill="#E5E7EB"/>
  <rect x="20" y="120" width="4" height="38" rx="2" fill="#407ec9"/>
  <rect x="34" y="128" width="75" height="5" rx="2" fill="#252b5d"/>
  <rect x="34" y="140" width="190" height="4" rx="2" fill="#9CA3AF"/>
  <rect x="34" y="149" width="50" height="4" rx="2" fill="#407ec9"/>
  <!-- Event card 4 -->
  <rect x="20" y="166" width="260" height="28" rx="6" fill="#E5E7EB"/>
  <rect x="20" y="166" width="4" height="28" rx="2" fill="#407ec9"/>
  <rect x="34" y="174" width="85" height="5" rx="2" fill="#252b5d"/>
  <rect x="34" y="184" width="160" height="4" rx="2" fill="#9CA3AF"/>
</svg>
