<svg xmlns="http://www.w3.org/2000/svg" width="300" height="200" viewBox="0 0 300 200">
  <rect width="300" height="200" fill="white"/>
  <!-- Left column: header + button -->
  <rect x="15" y="30" width="90" height="8" rx="2" fill="#252b5d"/>
  <rect x="15" y="46" width="110" height="5" rx="2" fill="#9CA3AF"/>
  <rect x="15" y="57" width="100" height="5" rx="2" fill="#9CA3AF"/>
  <rect x="15" y="68" width="105" height="5" rx="2" fill="#9CA3AF"/>
  <rect x="15" y="90" width="60" height="18" rx="4" fill="#407ec9"/>
  <!-- Right column: stacked accordion bars -->
  <rect x="155" y="25" width="130" height="28" rx="4" fill="#E5E7EB"/>
  <rect x="165" y="34" width="60" height="5" rx="2" fill="#9CA3AF"/>
  <rect x="275" y="36" width="6" height="6" rx="1" fill="#407ec9"/>

  <rect x="155" y="58" width="130" height="28" rx="4" fill="#E5E7EB"/>
  <rect x="165" y="67" width="55" height="5" rx="2" fill="#9CA3AF"/>
  <rect x="275" y="69" width="6" height="6" rx="1" fill="#407ec9"/>

  <rect x="155" y="91" width="130" height="28" rx="4" fill="#E5E7EB"/>
  <rect x="165" y="100" width="65" height="5" rx="2" fill="#9CA3AF"/>
  <rect x="275" y="102" width="6" height="6" rx="1" fill="#407ec9"/>

  <rect x="155" y="124" width="130" height="28" rx="4" fill="#E5E7EB"/>
  <rect x="165" y="133" width="50" height="5" rx="2" fill="#9CA3AF"/>
  <rect x="275" y="135" width="6" height="6" rx="1" fill="#407ec9"/>

  <rect x="155" y="157" width="130" height="28" rx="4" fill="#E5E7EB"/>
  <rect x="165" y="166" width="58" height="5" rx="2" fill="#9CA3AF"/>
  <rect x="275" y="168" width="6" height="6" rx="1" fill="#407ec9"/>
</svg>