<svg xmlns="http://www.w3.org/2000/svg" width="300" height="200" viewBox="0 0 300 200">
  <rect width="300" height="200" fill="white"/>
  <rect x="15" y="25" width="80" height="8" rx="2" fill="#252b5d"/>
  <rect x="15" y="42" width="115" height="5" rx="2" fill="#9CA3AF"/>
  <rect x="15" y="53" width="110" height="5" rx="2" fill="#9CA3AF"/>
  <rect x="15" y="64" width="100" height="5" rx="2" fill="#9CA3AF"/>
  <rect x="15" y="75" width="108" height="5" rx="2" fill="#9CA3AF"/>
  <rect x="15" y="86" width="95" height="5" rx="2" fill="#9CA3AF"/>
  <rect x="15" y="97" width="105" height="5" rx="2" fill="#9CA3AF"/>
  <rect x="155" y="20" width="130" height="90" rx="6" fill="#E5E7EB"/>
  <line x1="155" y1="20" x2="285" y2="110" stroke="#9CA3AF" stroke-width="0.5"/>
  <line x1="285" y1="20" x2="155" y2="110" stroke="#9CA3AF" stroke-width="0.5"/>
  <rect x="155" y="120" width="130" height="5" rx="2" fill="#407ec9"/>
  <rect x="155" y="132" width="120" height="5" rx="2" fill="#407ec9"/>
  <rect x="155" y="144" width="110" height="5" rx="2" fill="#407ec9"/>
  <rect x="155" y="156" width="125" height="5" rx="2" fill="#407ec9"/>
</svg>
