<svg xmlns="http://www.w3.org/2000/svg" width="300" height="200" viewBox="0 0 300 200">
  <rect width="300" height="200" fill="white"/>
  <rect x="15" y="15" width="270" height="110" rx="6" fill="#E5E7EB"/>
  <rect x="30" y="30" width="50" height="35" rx="2" fill="#9CA3AF" opacity="0.3"/>
  <rect x="90" y="40" width="40" height="45" rx="2" fill="#9CA3AF" opacity="0.3"/>
  <rect x="140" y="25" width="60" height="55" rx="2" fill="#9CA3AF" opacity="0.3"/>
  <rect x="210" y="35" width="55" height="40" rx="2" fill="#9CA3AF" opacity="0.3"/>
  <circle cx="55" cy="90" r="4" fill="#407ec9"/>
  <circle cx="110" cy="100" r="4" fill="#407ec9"/>
  <circle cx="170" cy="85" r="4" fill="#407ec9"/>
  <circle cx="237" cy="95" r="4" fill="#407ec9"/>
  <rect x="15" y="140" width="80" height="7" rx="2" fill="#252b5d"/>
  <rect x="15" y="155" width="270" height="5" rx="2" fill="#9CA3AF"/>
  <rect x="15" y="166" width="250" height="5" rx="2" fill="#9CA3AF"/>
  <rect x="15" y="177" width="200" height="5" rx="2" fill="#9CA3AF"/>
</svg>
